<!-- Generated by IcoMoon.io -->
<svg version="1.1" xmlns="http://www.w3.org/2000/svg" width="43" height="32" viewBox="0 0 43 32">
<path fill="#cc313e" d="M0 0c14.102 0 28.204 0 42.733 0 0 10.56 0 21.12 0 32-14.102 0-28.204 0-42.733 0 0-10.56 0-21.12 0-32z"></path>
<path fill="#fdd8dc" d="M19.851 4.205c0.279 0.181 0.55 0.372 0.82 0.565-0.085 0.161-0.085 0.161-0.172 0.326-0.253 0.527-0.451 1.061-0.648 1.612-0.105 0.294-0.105 0.294-0.213 0.593-0.079 0.223-0.079 0.223-0.16 0.45-0.398 0-0.398 0-0.882-0.472-0.252-0.258-0.252-0.258-0.509-0.522-0.93-0.62-1.892-0.513-2.981-0.397-0.771 0.352-1.085 0.641-1.565 1.329-0.387 1.141-0.427 2.017 0.092 3.116 0.499 0.822 1.156 1.417 1.87 2.051 0.979 0.887 1.933 1.789 2.854 2.737 0.178 0.183 0.356 0.365 0.54 0.553 0.351 0.362 0.701 0.726 1.048 1.092 0.241 0.247 0.241 0.247 0.487 0.499 0.142 0.149 0.284 0.297 0.431 0.45 0.377 0.339 0.377 0.339 0.817 0.276 0.415-0.195 0.664-0.392 0.982-0.721 0.105-0.107 0.21-0.214 0.318-0.324 0.107-0.112 0.214-0.224 0.325-0.34 0.11-0.113 0.22-0.226 0.334-0.342 0.271-0.278 0.54-0.558 0.809-0.838-0.278-0.653-0.591-1.001-1.143-1.441-1.411-1.198-2.51-2.611-2.72-4.502-0.005-0.267-0.005-0.535-0.001-0.802 0.002-0.14 0.003-0.28 0.005-0.425 0.036-1.112 0.205-1.887 0.877-2.768 0.099-0.136 0.198-0.272 0.3-0.412 0.944-1.187 2.159-2.089 3.675-2.37 1.98-0.166 3.678 0.010 5.32 1.19 1.476 1.249 2.3 2.476 2.47 4.41 0.091 1.895-0.489 3.215-1.727 4.636-0.528 0.571-0.969 0.99-1.689 1.292-0.094-0.096-0.187-0.192-0.283-0.29-0.124-0.126-0.247-0.251-0.375-0.38-0.122-0.125-0.244-0.249-0.37-0.377-0.38-0.379-0.38-0.379-0.959-0.741 0-0.131 0-0.262 0-0.398 0.291-0.238 0.583-0.477 0.874-0.715 0.64-0.56 1.058-1.090 1.182-1.947 0.036-1.033-0.035-1.85-0.665-2.704-0.991-0.785-1.807-0.922-3.063-0.872-0.954 0.142-1.47 0.595-2.080 1.307-0.392 0.979-0.403 1.91-0.002 2.888 0.462 0.803 1.023 1.379 1.682 2.024 0.128 0.127 0.255 0.255 0.387 0.386 0.27 0.268 0.54 0.536 0.811 0.803 0.411 0.405 0.819 0.811 1.227 1.218 0.264 0.262 0.528 0.524 0.792 0.785 0.12 0.12 0.241 0.239 0.365 0.362 0.748 0.736 1.519 1.427 2.328 2.095 0.355 0.352 0.537 0.671 0.734 1.128-0.19 0.175-0.38 0.351-0.575 0.532-0.26 0.241-0.519 0.482-0.779 0.723-0.202 0.188-0.202 0.188-0.408 0.379-1.027 0.958-2.019 1.944-2.993 2.955-0.412 0.38-0.412 0.38-0.81 0.38 0 0.131 0 0.262 0 0.398-0.25 0.245-0.25 0.245-0.621 0.547-0.979 0.827-1.866 1.735-2.755 2.656-0.622 0.634-1.193 1.153-1.99 1.568-0.406-0.321-0.803-0.653-1.193-0.994 0-0.131 0-0.262 0-0.398-0.116-0.051-0.231-0.101-0.35-0.153-0.493-0.271-0.814-0.571-1.206-0.973-0.143-0.145-0.285-0.29-0.432-0.439-0.147-0.152-0.295-0.303-0.446-0.459-0.948-0.971-1.903-1.907-2.933-2.791-0.715-0.635-1.379-1.322-2.049-2.004-0.276-0.281-0.553-0.562-0.83-0.842-0.12-0.122-0.24-0.245-0.364-0.371-0.358-0.354-0.358-0.354-0.931-0.712 0.288-0.685 0.651-1.066 1.217-1.54 0.144-0.122 0.288-0.244 0.436-0.37 0.165-0.137 0.165-0.137 0.334-0.276 0.864 0.329 1.409 0.976 2.037 1.627 1.030 1.053 1.030 1.053 2.124 2.037 0.917 0.774 1.744 1.64 2.577 2.502 0.69 0.704 1.365 1.268 2.206 1.783 1.265-1.111 2.471-2.263 3.653-3.462 0.575-0.567 1.175-1.090 1.801-1.599 0.343-0.338 0.516-0.66 0.707-1.1-0.262-0.262-0.525-0.525-0.795-0.795-0.769 0.313-1.233 0.804-1.801 1.4-0.193 0.199-0.386 0.398-0.579 0.597-0.302 0.313-0.603 0.627-0.903 0.942-0.291 0.305-0.584 0.607-0.878 0.908-0.174 0.182-0.348 0.363-0.527 0.551-0.479 0.373-0.479 0.373-0.869 0.33-0.445-0.171-0.667-0.347-0.999-0.685-0.11-0.111-0.22-0.222-0.334-0.336-0.117-0.121-0.234-0.241-0.355-0.366-0.123-0.124-0.246-0.249-0.373-0.377-0.394-0.398-0.785-0.799-1.177-1.199-0.514-0.523-1.028-1.045-1.543-1.567-0.123-0.125-0.247-0.25-0.374-0.379-0.732-0.738-1.477-1.446-2.27-2.118-2.078-1.765-3.789-3.497-4.172-6.297-0.096-1.711 0.552-3.118 1.668-4.401 2.416-2.28 5.452-2.644 8.306-0.884z"></path>
<path fill="#c73b47" d="M27.627 12.919c1.026 0.272 1.636 0.91 2.186 1.789 0.080 0.462 0.147 0.926 0.199 1.391 0.382 0.574 0.382 0.574 0.795 0.994-0.596 0-0.596 0-0.938-0.274-0.122-0.125-0.244-0.25-0.369-0.378-0.133-0.134-0.265-0.269-0.402-0.408-0.137-0.142-0.274-0.284-0.416-0.431-0.14-0.142-0.279-0.284-0.423-0.431-0.345-0.352-0.688-0.705-1.031-1.060 0.131-0.394 0.262-0.787 0.398-1.193z"></path>
<path fill="#c53d48" d="M15.503 17.292c0.262 0.131 0.525 0.262 0.795 0.398-0.062 0.385-0.062 0.385-0.199 0.795-0.197 0.066-0.394 0.131-0.596 0.199-0.066 0.131-0.131 0.262-0.199 0.398 0.492 0.197 0.492 0.197 0.994 0.398 0 0.262 0 0.525 0 0.795-0.97-0.784-1.8-1.614-2.584-2.584 0.969 0.373 0.969 0.373 1.193 0.596 0.197-0.328 0.394-0.656 0.596-0.994z"></path>
<path fill="#c0424d" d="M27.826 6.162c0.197 0.131 0.394 0.262 0.596 0.397-0.111-0.005-0.221-0.009-0.335-0.014-1.088-0.026-2.009 0.060-3.043 0.412-0.066 0.197-0.131 0.394-0.199 0.596-0.41 0.236-0.41 0.236-0.795 0.397 0.182-0.656 0.384-0.981 0.882-1.453 0.961-0.455 1.846-0.477 2.894-0.335z"></path>
<path fill="#fccfd2" d="M28.025 18.882c0.131 0.197 0.262 0.394 0.398 0.596-0.199 0.398-0.199 0.398-0.658 0.671-0.764 0.462-1.234 0.975-1.727 1.714-0.262-0.066-0.525-0.131-0.795-0.199 0.184-0.168 0.368-0.335 0.558-0.508 0.24-0.22 0.481-0.44 0.721-0.66 0.122-0.11 0.243-0.221 0.368-0.335 0.116-0.106 0.232-0.213 0.351-0.322 0.161-0.147 0.161-0.147 0.325-0.296 0.284-0.262 0.284-0.262 0.459-0.662z"></path>
<path fill="#bf3c4b" d="M28.621 6.758c0.576 0.198 0.79 0.39 1.143 0.894 0.321 0.899 0.374 1.736 0.248 2.683-0.131 0.197-0.262 0.394-0.398 0.596-0.131 0-0.262 0-0.398 0 0-0.131 0-0.262 0-0.398 0.131 0 0.262 0 0.398 0 0-0.853 0-1.705 0-2.584-0.197-0.066-0.394-0.131-0.596-0.199-0.236-0.509-0.236-0.509-0.398-0.994z"></path>
<path fill="#c43a45" d="M23.056 28.025c0.199 0.398 0.199 0.398 0.075 0.907-0.273 0.484-0.273 0.484-0.77 0.658-0.497 0.025-0.497 0.025-0.894-0.174 0.525-0.459 1.049-0.918 1.59-1.391z"></path>
<path fill="#bd3c45" d="M25.441 25.64c0.066 0.262 0.131 0.525 0.199 0.795-0.18 0.115-0.361 0.23-0.547 0.348-0.551 0.381-0.988 0.754-1.441 1.242-0.131-0.066-0.262-0.131-0.398-0.199 0.721-0.721 1.443-1.443 2.186-2.186z"></path>
<path fill="#c03f4d" d="M26.634 17.888c0.77 0.348 0.77 0.348 0.994 0.795-0.656 0.131-1.312 0.262-1.988 0.398 0.328-0.394 0.656-0.787 0.994-1.193z"></path>
<path fill="#fbd0d2" d="M31.205 19.478c0.197 0.066 0.394 0.131 0.596 0.199-0.512 0.526-0.977 0.983-1.59 1.391 0-0.596 0-0.596 0.497-1.13 0.164-0.152 0.328-0.303 0.497-0.46z"></path>
<path fill="#fccccf" d="M23.851 23.056c0.066 0.131 0.131 0.262 0.199 0.398-0.328 0.328-0.656 0.656-0.994 0.994-0.131-0.066-0.262-0.131-0.398-0.199 0.394-0.394 0.787-0.787 1.193-1.193zM22.261 24.646c0.066 0.131 0.131 0.262 0.199 0.398-0.262 0.066-0.525 0.131-0.795 0.199 0.197-0.197 0.394-0.394 0.596-0.596z"></path>
<path fill="#fac1c6" d="M29.416 10.932c0.066 0.131 0.131 0.262 0.199 0.398-0.253 0.405-0.519 0.803-0.795 1.193-0.131 0-0.262 0-0.398 0-0.066 0.197-0.131 0.394-0.199 0.596-0.131-0.066-0.262-0.131-0.398-0.199 0-0.131 0-0.262 0-0.398 0.294-0.249 0.588-0.497 0.893-0.732 0.353-0.285 0.353-0.285 0.697-0.858z"></path>
<path fill="#c44553" d="M15.702 24.050c0.669 0.277 0.991 0.592 1.391 1.193-0.596 0-0.596 0-1.031-0.373-0.36-0.422-0.36-0.422-0.36-0.82z"></path>
<path fill="#c44956" d="M29.416 15.901c0.669 0.277 0.991 0.592 1.391 1.193-0.596 0-0.596 0-1.031-0.373-0.36-0.422-0.36-0.422-0.36-0.82z"></path>
<path fill="#c03c49" d="M21.466 12.522c0.969 0.944 0.969 0.944 1.193 1.391-0.394-0.131-0.787-0.262-1.193-0.398 0-0.328 0-0.656 0-0.994z"></path>
<path fill="#bb343f" d="M21.068 24.050c0.131 0.066 0.262 0.131 0.398 0.199 0 0.131 0 0.262 0 0.398 0.197 0.066 0.394 0.131 0.596 0.199-0.197 0.131-0.394 0.262-0.596 0.398-0.262-0.328-0.525-0.656-0.795-0.994 0.131-0.066 0.262-0.131 0.398-0.199z"></path>
<path fill="#cd2f3b" d="M20.87 22.46c0 0.197 0 0.394 0 0.596-0.394 0.197-0.394 0.197-0.795 0.398-0.066-0.262-0.131-0.525-0.199-0.795 0.398-0.199 0.398-0.199 0.994-0.199z"></path>
<path fill="#fbd0d1" d="M10.335 10.932c0.394 0.197 0.394 0.197 0.795 0.398-0.066 0.328-0.131 0.656-0.199 0.994-0.469-0.469-0.495-0.751-0.596-1.391z"></path>
<path fill="#c93948" d="M11.925 3.578c0.492 0.197 0.492 0.197 0.994 0.397-0.197 0.197-0.394 0.394-0.596 0.596-0.197-0.197-0.394-0.394-0.596-0.596 0.066-0.131 0.131-0.262 0.199-0.397z"></path>
</svg>
